<?xml version="1.0" encoding="utf-8"?>
<!-- Generator: Adobe Illustrator 27.5.0, SVG Export Plug-In . SVG Version: 6.00 Build 0)  -->
<svg version="1.1" id="Layer_1" xmlns="http://www.w3.org/2000/svg" xmlns:xlink="http://www.w3.org/1999/xlink" x="0px" y="0px"
	 viewBox="0 0 1000 1000" style="enable-background:new 0 0 1000 1000;" xml:space="preserve">
<rect style="fill:#FFFFFF;" width="1000" height="1000"/>
<path style="fill:#C1C172;" d="M252.091,227.711c-14.752,9.941-6.74,24.504-19.765,45.526
	c-12.351,19.932-38.654,37.658-58.198,32.453c-18.889-5.029-13.101-26.586-38.112-48.935
	c-29.586-26.432-62.426-18.378-70.045-40.689c-3.671-10.744,0.977-21.315,3.604-27.298c13.917-31.662,50.605-27.068,57.593-53.292
	c2.924-10.968-1.21-21.205,7.833-34.063c2.621-3.731,5.845-7.133,9.645-10.064c20.105-15.489,48.878-11.916,64.6,7.902l0.003-0.003
	c32.992,41.559,40.557,42.145,79.431,46.858v0.003c8.832,1.071,17.241,5.564,23.073,13.199c11.229,14.702,8.636,35.913-5.807,47.47
	c-2.858,2.284-5.961,4.036-9.197,5.271c-3.255,1.241-5.857,1.654-6.613,1.783C282.83,215.073,261.471,221.391,252.091,227.711z"/>
<path style="fill:#779352;" d="M426.157,184.756c11.921-15.373,12.233-24.733-1.601-55.676
	c-10.224-22.872,33.307-57.116,53.624-46.947c31.933,15.981,22.07,22.359,53.67,36.167c37.972,16.593,66.761-2.426,82.664,17.631
	c5.806,7.325,11.441,20.732,5.28,28.241c-17.155,20.912-62.008,6.644-67.524,22.053c-3.393,9.472,4.905,22.681,27.695,49.478
	c7.673,9.021,8.078,20.636,3.281,36.321c-1.391,4.55-3.482,8.969-6.302,13.108c-14.913,21.882-50.488,31.666-66.63,13.118v0.003
	c-43.63-64.575-53.89-28.638-93.973-20.705v-0.003c-9.107,1.802-18.904,0.076-27.165-5.605
	c-15.905-10.938-20.215-32.814-9.636-48.959c2.091-3.192,4.603-5.937,7.414-8.212c2.798-2.265,5.214-3.508,5.98-3.916
	C398.683,207.812,410.492,204.958,426.157,184.756z"/>
<path style="fill:#C1C172;" d="M907.02,173.564c-53.683,12.727-76.863,42.796-80.673,93.501
	c-1.612,22.141-20.083,39.604-42.633,39.604c-23.61,0-42.749-19.139-42.749-42.749c0-1.98,0.136-3.925,0.399-5.833
	c5.68-43.788-0.998-61.292-46.637-82.629c-17.142-7.636-29.092-24.819-29.092-44.793c0-27.071,21.943-49.015,49.015-49.015
	c5.949,0,11.65,1.06,16.924,3.002c16.355,5.605,18.979,6.518,42.207-0.034c6.314-1.929,13.016-2.968,19.957-2.968
	c10.225,0,19.923,2.252,28.632,6.287c27.446,12.031,33.157,10.236,51.059,0.085c6.9-4.048,14.928-6.372,23.504-6.372
	c25.685,0,46.507,20.822,46.507,46.507C943.442,150.38,927.856,168.957,907.02,173.564z"/>
<path style="fill:#FFBB24;" d="M311.575,438.038c-4.904-29.314-32.644-49.104-61.958-44.2c-4.133,0.692-8.076,1.837-11.789,3.376
	c-47.726,18.641-57.538,13.522-88.302-7.215l0,0c-7.893-5.32-17.755-7.742-27.883-6.049c-20.98,3.509-35.144,23.363-31.632,44.343
	c0.57,3.405,1.571,6.626,2.938,9.626c11.068,25.53,14.569,34.825-11.627,76.761h0.004c-8.456,13.522-12.198,30.064-9.36,47.03
	c6.167,36.874,41.06,61.761,77.93,55.594c9.227-1.543,17.705-4.886,25.131-9.608c42.786-25.809,52.325-21.741,78.529-9.981
	c6.784,3.136,14.555,4.334,22.484,3.01c20.98-3.509,35.144-23.363,31.632-44.343c-0.75-4.477-2.242-8.643-4.334-12.392
	c-13.977-26.333-16.507-34.822,2.87-72.179C311.45,461.791,313.584,450.046,311.575,438.038z"/>
<path style="fill:#C1C172;" d="M535.16,587.85c-30.266-11.197-38.75-7.463-56.715,12.922c-2.53,3.073-5.383,5.827-8.526,8.106
	c-14.497,10.688-31.015,6.827-39.867-11.582c-3.221-6.927-4.607-14.899-3.984-22.73c1.107-15.064,2.183-24.975-1.413-35.178
	c-3.685-10.155-12.042-20.602-31.789-35.653c-7.15-5.084-13.576-11.709-18.598-19.911c-10.021-16.274-12.345-36.175-5.5-53.9
	c6.69-17.684,22.545-33.191,45.251-39.671c20.815-6.078,43.133-3.5,61.336,4.411v-0.003c28.127,12.345,43.738,19.224,56.757,22.07
	c12.922,2.991,23.26,1.942,38.588,1.784c3.613-0.076,7.505,0.299,11.599,1.183c25.529,5.49,47.599,27.973,48.96,44.597
	c0.777,8.137-3.022,13.71-9.505,16.931l0,0c-25.535,12.871-29.396,21.579-16.807,60.019c1.021,3.008,1.616,6.047,1.75,9.079
	c0.629,21.218-20.444,35.127-44.302,39.702C552.469,591.69,543.232,591.023,535.16,587.85z"/>
<path style="fill:#FFBB24;" d="M914.591,453.369c-23.282,30.264-22.265,39.185-13.157,60.95c1.388,3.168,2.164,6.703,2.205,10.524
	c0.197,17.791-15.909,35.541-35.973,42.88c-7.577,2.688-14.627,3.29-20.462,1.892c-22.592-4.988-30.737-6.573-74.515,29.369
	c-7.642,6.427-16.046,11.663-24.861,14.902c-17.617,6.611-33.52,3.389-44.945-6.852c-11.425-10.139-18.373-27.297-18.193-46.163
	c0.167-17.488,6.325-33.408,16.291-46.245h-0.003c30.853-40.672,29.029-50.559,22.997-75.917c-0.769-3.025-1.17-6.264-1.15-9.666
	c0.15-21.054,16.195-39.454,35.837-43.629c9.486-2.011,18.094-0.33,24.473,4.124l0,0c24.865,17.686,33.143,18.825,79.558-1.204
	c3.624-1.545,7.397-2.681,11.279-3.341c27.512-4.791,50.083,16.968,50.42,41.329C924.515,436.374,920.865,445.496,914.591,453.369z"
	/>
<path style="fill:#779352;" d="M290.531,825.878c0,34.947-28.329,63.279-63.279,63.279c-1.722,0-3.427-0.072-5.114-0.207
	c-29.406-2.273-33.655,0.904-47.613,16.203c-0.006,0.005-0.014,0.014-0.019,0.019c-0.017,0.017-0.033,0.036-0.047,0.052l0,0
	c-8.111,8.891-19.793,14.47-32.779,14.47c-24.499,0-44.361-19.862-44.361-44.362c0-6.593,1.441-12.848,4.02-18.471
	c7.756-17.878,8.96-22.48-2.43-47.811c-3.904-8.222-6.092-17.413-6.092-27.12c0-34.947,28.329-63.276,63.279-63.276
	c5.681,0,11.183,0.752,16.421,2.157c26.767,6.604,33.346,2.251,41.548-10.106c5.993-9.268,16.418-15.404,28.277-15.404
	c18.584,0,33.649,15.065,33.649,33.649c0,6.99-2.133,13.481-5.78,18.862c-7.651,11.627-8.503,18.79,7.45,39.813l0,0
	C285.734,798.252,290.531,811.504,290.531,825.878z"/>
<path style="fill:#FFBB24;" d="M595.922,804.281c-23.038,15.195-27.064,19.167-33.693,53.835
	c-6.323,36.406-38.07,64.088-76.285,64.088c-38.448,0-70.345-28.024-76.396-64.757c-5.574-31.148-8.539-32.692-22.468-45.47l0,0
	c-9.054-8.314-14.736-20.249-14.736-33.516c0-25.118,20.363-45.479,45.479-45.479c6.02,0,11.765,1.172,17.023,3.298
	c34.596,13.171,50.36,13.165,83.723-23.628l0,0c11.066-12.196,27.043-19.857,44.81-19.857c33.405,0,60.488,27.082,60.488,60.488
	C623.868,774.71,612.727,793.536,595.922,804.281z"/>
<path style="fill:#779352;" d="M941.871,795.214c0,62.868-61.485,113.835-137.332,113.835s-137.332-50.967-137.332-113.835
	s75.49-5.217,137.332-61.479C877.272,667.567,941.871,732.346,941.871,795.214z"/>
</svg>
